<?xml version="1.0" encoding="utf-8"?>
<!-- Generator: Adobe Illustrator 23.0.1, SVG Export Plug-In . SVG Version: 6.00 Build 0)  -->
<svg version="1.1" id="Layer_1" xmlns="http://www.w3.org/2000/svg" xmlns:xlink="http://www.w3.org/1999/xlink" x="0px" y="0px"
	 viewBox="0 0 451.9 82.7" style="enable-background:new 0 0 451.9 82.7;" xml:space="preserve">
<style type="text/css">
	.st0{fill:#162C39;}
	.st1{enable-background:new    ;}
	.st2{fill:#8690A4;}
</style>
<title>Untitled-1</title>
<path class="st0" d="M44.9,50.4V17.1H6.8c-1.7,0-3.1,1.4-3.1,3.1c0,0.4,0.1,0.9,0.3,1.3l8.1,17.7c0.4,1,0.4,2.1-0.2,3L0.5,59.5
	C-0.4,61,0,62.9,1.4,63.8c0.5,0.3,1.1,0.5,1.7,0.5h63.6c1.7,0,3.1-1.4,3.1-3.1v-5.6H50.1C47.2,55.6,44.9,53.3,44.9,50.4z"/>
<path class="st0" d="M451.4,59.5L440,42.1c-0.6-0.9-0.7-2-0.2-3l8.1-17.7c0.7-1.6,0-3.4-1.5-4.1c-0.4-0.2-0.8-0.3-1.3-0.3H407v33.3
	c0,2.9-2.3,5.2-5.2,5.2c0,0,0,0,0,0h-19.6v5.6c0,1.7,1.4,3.1,3.1,3.1h63.6c1.7,0,3.1-1.4,3.1-3.1C451.9,60.6,451.7,60.1,451.4,59.5z
	"/>
<path class="st0" d="M53.1,0h345.6c2.1,0,3.8,1.7,3.8,3.8v43.1c0,2.1-1.7,3.8-3.8,3.8H53.1c-2.1,0-3.8-1.7-3.8-3.8V3.8
	C49.3,1.7,51,0,53.1,0z"/>
<g class="st1">
	<path class="st2" d="M118.3,18.1h4.2c1.9,0,3.3,0.3,4.2,0.8c0.9,0.5,1.3,1.4,1.3,2.6c0,0.8-0.2,1.5-0.6,2s-0.9,0.8-1.5,0.9v0.1
		c0.9,0.2,1.5,0.5,1.8,1.1c0.4,0.5,0.6,1.2,0.6,2.1c0,1.2-0.4,2.2-1.3,2.9c-0.9,0.7-2.1,1-3.6,1h-5V18.1z M121.2,23.4h1.7
		c0.8,0,1.3-0.1,1.7-0.4s0.5-0.6,0.5-1.2c0-0.5-0.2-0.9-0.6-1.1c-0.4-0.2-1-0.3-1.8-0.3h-1.5V23.4z M121.2,25.7v3.5h1.9
		c0.8,0,1.4-0.2,1.7-0.5c0.4-0.3,0.6-0.8,0.6-1.4c0-1.1-0.8-1.7-2.4-1.7H121.2z"/>
	<path class="st2" d="M131,31.6V18.1h2.9v11.1h5.5v2.4H131z"/>
	<path class="st2" d="M149.9,31.6l-1-3.2H144l-1,3.2h-3.1l4.7-13.5h3.5l4.8,13.5H149.9z M148.2,26c-0.9-2.9-1.4-4.5-1.5-4.9
		c-0.1-0.4-0.2-0.7-0.2-0.9c-0.2,0.8-0.8,2.7-1.7,5.8H148.2z"/>
	<path class="st2" d="M160.4,20.3c-1.1,0-1.9,0.4-2.5,1.2s-0.9,1.9-0.9,3.4c0,3,1.1,4.5,3.4,4.5c0.9,0,2.1-0.2,3.4-0.7v2.4
		c-1.1,0.5-2.3,0.7-3.7,0.7c-2,0-3.5-0.6-4.5-1.8c-1-1.2-1.6-2.9-1.6-5.1c0-1.4,0.3-2.6,0.8-3.7c0.5-1.1,1.2-1.9,2.2-2.4
		s2.1-0.8,3.4-0.8c1.3,0,2.6,0.3,3.9,0.9l-0.9,2.3c-0.5-0.2-1-0.4-1.5-0.6S160.9,20.3,160.4,20.3z"/>
	<path class="st2" d="M177.5,31.6h-3.2l-3.5-5.7l-1.2,0.9v4.8h-2.9V18.1h2.9v6.2l1.1-1.6l3.6-4.6h3.2l-4.7,6L177.5,31.6z"/>
	<path class="st2" d="M177.8,35.5c-0.6,0-1.2-0.1-1.7-0.2v-2.4c0.5,0.1,0.9,0.2,1.3,0.2c0.6,0,1.1-0.2,1.3-0.6s0.4-1,0.4-1.8V18.1
		h2.9v12.6c0,1.6-0.4,2.8-1.1,3.6C180.2,35.1,179.2,35.5,177.8,35.5z"/>
	<path class="st2" d="M193.7,31.6l-1-3.2h-4.9l-1,3.2h-3.1l4.7-13.5h3.5l4.8,13.5H193.7z M192,26c-0.9-2.9-1.4-4.5-1.5-4.9
		c-0.1-0.4-0.2-0.7-0.2-0.9c-0.2,0.8-0.8,2.7-1.7,5.8H192z"/>
	<path class="st2" d="M204.1,20.3c-1.1,0-1.9,0.4-2.5,1.2s-0.9,1.9-0.9,3.4c0,3,1.1,4.5,3.4,4.5c0.9,0,2.1-0.2,3.4-0.7v2.4
		c-1.1,0.5-2.3,0.7-3.7,0.7c-2,0-3.5-0.6-4.5-1.8c-1-1.2-1.6-2.9-1.6-5.1c0-1.4,0.3-2.6,0.8-3.7c0.5-1.1,1.2-1.9,2.2-2.4
		s2.1-0.8,3.4-0.8c1.3,0,2.6,0.3,3.9,0.9l-0.9,2.3c-0.5-0.2-1-0.4-1.5-0.6S204.6,20.3,204.1,20.3z"/>
	<path class="st2" d="M221.3,31.6H218l-3.5-5.7l-1.2,0.9v4.8h-2.9V18.1h2.9v6.2l1.1-1.6l3.6-4.6h3.2l-4.7,6L221.3,31.6z"/>
	<path class="st2" d="M237.1,22.3c0,1.4-0.5,2.6-1.4,3.3c-0.9,0.8-2.2,1.2-3.9,1.2h-1.2v4.8h-2.9V18.1h4.3c1.6,0,2.9,0.4,3.7,1.1
		C236.7,19.9,237.1,20.9,237.1,22.3z M230.7,24.4h0.9c0.9,0,1.5-0.2,2-0.5c0.4-0.3,0.7-0.9,0.7-1.5c0-0.7-0.2-1.2-0.5-1.5
		c-0.4-0.3-0.9-0.5-1.7-0.5h-1.3V24.4z"/>
	<path class="st2" d="M247.9,31.6l-1-3.2H242l-1,3.2H238l4.7-13.5h3.5l4.8,13.5H247.9z M246.3,26c-0.9-2.9-1.4-4.5-1.5-4.9
		c-0.1-0.4-0.2-0.7-0.2-0.9c-0.2,0.8-0.8,2.7-1.7,5.8H246.3z"/>
	<path class="st2" d="M256.9,23.6l2.8-5.5h3.1l-4.5,8.2v5.2h-2.8v-5.1l-4.5-8.3h3.1L256.9,23.6z"/>
	<path class="st2" d="M272.4,27.8c0,1.2-0.4,2.2-1.3,2.9c-0.9,0.7-2.1,1-3.6,1c-1.4,0-2.7-0.3-3.8-0.8v-2.7c0.9,0.4,1.7,0.7,2.3,0.9
		c0.6,0.2,1.2,0.2,1.7,0.2c0.6,0,1.1-0.1,1.4-0.4c0.3-0.2,0.5-0.6,0.5-1.1c0-0.3-0.1-0.5-0.2-0.7c-0.1-0.2-0.4-0.4-0.6-0.6
		c-0.3-0.2-0.9-0.5-1.7-0.9c-0.8-0.4-1.4-0.8-1.8-1.1c-0.4-0.4-0.7-0.8-1-1.2c-0.2-0.5-0.4-1-0.4-1.7c0-1.2,0.4-2.1,1.2-2.8
		c0.8-0.7,1.9-1,3.3-1c0.7,0,1.4,0.1,2,0.2c0.6,0.2,1.3,0.4,2,0.7l-0.9,2.2c-0.7-0.3-1.3-0.5-1.8-0.6c-0.5-0.1-0.9-0.2-1.4-0.2
		c-0.5,0-1,0.1-1.2,0.4s-0.4,0.6-0.4,1c0,0.3,0.1,0.5,0.2,0.7c0.1,0.2,0.3,0.4,0.6,0.5c0.3,0.2,0.9,0.5,1.8,0.9
		c1.3,0.6,2.1,1.2,2.6,1.8C272.2,26.2,272.4,26.9,272.4,27.8z"/>
	<path class="st2" d="M287.7,21.1c0,0.8-0.3,1.6-0.8,2.1c-0.5,0.6-1.2,1-2.1,1.2v0.1c1.1,0.1,1.9,0.5,2.5,1c0.6,0.5,0.8,1.2,0.8,2.1
		c0,1.3-0.5,2.3-1.4,3s-2.3,1.1-4,1.1c-1.5,0-2.8-0.2-3.9-0.7v-2.4c0.5,0.3,1.1,0.5,1.7,0.6s1.2,0.2,1.9,0.2c0.9,0,1.6-0.2,2.1-0.5
		c0.4-0.3,0.7-0.8,0.7-1.5c0-0.6-0.3-1.1-0.8-1.3c-0.5-0.3-1.3-0.4-2.5-0.4h-1v-2.2h1c1,0,1.8-0.1,2.3-0.4c0.5-0.3,0.7-0.7,0.7-1.4
		c0-1-0.6-1.5-1.9-1.5c-0.4,0-0.9,0.1-1.3,0.2s-1,0.4-1.5,0.8l-1.3-2c1.2-0.9,2.7-1.3,4.4-1.3c1.4,0,2.5,0.3,3.3,0.8
		S287.7,20.1,287.7,21.1z"/>
	<path class="st2" d="M300.6,31.6h-2.9V20.5h-3.7v-2.4h10.2v2.4h-3.7V31.6z"/>
	<path class="st2" d="M318.5,24.8c0,2.2-0.6,3.9-1.7,5.1c-1.1,1.2-2.7,1.8-4.7,1.8s-3.6-0.6-4.7-1.8c-1.1-1.2-1.7-2.9-1.7-5.2
		c0-2.2,0.6-4,1.7-5.1c1.1-1.2,2.7-1.8,4.8-1.8c2.1,0,3.6,0.6,4.7,1.8C318,20.9,318.5,22.6,318.5,24.8z M308.7,24.8
		c0,1.5,0.3,2.6,0.9,3.4s1.4,1.1,2.6,1.1c2.3,0,3.4-1.5,3.4-4.5c0-3-1.1-4.5-3.4-4.5c-1.1,0-2,0.4-2.6,1.1
		C309,22.2,308.7,23.3,308.7,24.8z"/>
	<path class="st2" d="M334.7,31.6h-9.4v-2l3.4-3.4c1-1,1.7-1.7,2-2.1s0.5-0.8,0.7-1.1c0.1-0.3,0.2-0.7,0.2-1c0-0.5-0.1-0.9-0.4-1.2
		s-0.7-0.4-1.2-0.4c-0.5,0-1,0.1-1.5,0.4c-0.5,0.2-1,0.6-1.5,1l-1.5-1.8c0.7-0.6,1.2-1,1.6-1.2c0.4-0.2,0.9-0.4,1.4-0.5
		s1.1-0.2,1.7-0.2c0.8,0,1.6,0.2,2.2,0.5c0.6,0.3,1.1,0.7,1.5,1.3c0.4,0.6,0.5,1.2,0.5,1.9c0,0.6-0.1,1.2-0.3,1.7s-0.6,1.1-1,1.7
		c-0.5,0.6-1.3,1.4-2.4,2.4l-1.7,1.6v0.1h5.9V31.6z"/>
</g>
<g class="st1">
	<path class="st2" d="M115.9,77.2V63.7h2.9v13.5H115.9z"/>
	<path class="st2" d="M134,77.2h-3.6L124.6,67h-0.1c0.1,1.8,0.2,3.1,0.2,3.8v6.3h-2.5V63.7h3.6l5.8,10.1h0.1c-0.1-1.7-0.1-3-0.1-3.7
		v-6.4h2.6V77.2z"/>
	<path class="st2" d="M145.4,73.4c0,1.2-0.4,2.2-1.3,2.9s-2.1,1-3.6,1c-1.4,0-2.7-0.3-3.8-0.8v-2.7c0.9,0.4,1.7,0.7,2.3,0.9
		c0.6,0.2,1.2,0.2,1.7,0.2c0.6,0,1.1-0.1,1.4-0.4s0.5-0.6,0.5-1.1c0-0.3-0.1-0.5-0.2-0.7c-0.1-0.2-0.4-0.4-0.6-0.6
		c-0.3-0.2-0.9-0.5-1.7-0.9c-0.8-0.4-1.4-0.8-1.9-1.1c-0.4-0.4-0.7-0.8-1-1.2c-0.2-0.5-0.4-1-0.4-1.7c0-1.2,0.4-2.1,1.2-2.8
		c0.8-0.7,1.9-1,3.3-1c0.7,0,1.4,0.1,2,0.2c0.6,0.2,1.3,0.4,2,0.7l-0.9,2.2c-0.7-0.3-1.3-0.5-1.8-0.6c-0.5-0.1-0.9-0.2-1.4-0.2
		c-0.5,0-1,0.1-1.2,0.4c-0.3,0.3-0.4,0.6-0.4,1c0,0.3,0.1,0.5,0.2,0.7c0.1,0.2,0.3,0.4,0.6,0.5c0.3,0.2,0.9,0.5,1.8,0.9
		c1.3,0.6,2.1,1.2,2.6,1.8C145.1,71.8,145.4,72.5,145.4,73.4z"/>
	<path class="st2" d="M158.8,63.7v8.7c0,1-0.2,1.9-0.7,2.6c-0.4,0.7-1.1,1.3-1.9,1.7s-1.8,0.6-3,0.6c-1.7,0-3.1-0.4-4-1.3
		c-1-0.9-1.4-2.1-1.4-3.6v-8.7h2.8v8.2c0,1,0.2,1.8,0.6,2.3c0.4,0.5,1.1,0.7,2.1,0.7c0.9,0,1.6-0.2,2-0.7c0.4-0.5,0.6-1.3,0.6-2.3
		v-8.2H158.8z"/>
	<path class="st2" d="M164.9,72v5.2h-2.9V63.7h3.9c1.8,0,3.2,0.3,4.1,1c0.9,0.7,1.3,1.7,1.3,3c0,0.8-0.2,1.5-0.7,2.1
		c-0.4,0.6-1.1,1.1-1.9,1.4c2,3,3.3,5,4,5.9h-3.2l-3.2-5.2H164.9z M164.9,69.7h0.9c0.9,0,1.6-0.1,2-0.5c0.4-0.3,0.6-0.8,0.6-1.4
		c0-0.6-0.2-1.1-0.7-1.4c-0.4-0.3-1.1-0.4-2-0.4h-0.9V69.7z"/>
	<path class="st2" d="M182.7,77.2l-1-3.2h-4.9l-1,3.2h-3.1l4.7-13.5h3.5l4.8,13.5H182.7z M181.1,71.6c-0.9-2.9-1.4-4.5-1.5-4.9
		c-0.1-0.4-0.2-0.7-0.2-0.9c-0.2,0.8-0.8,2.7-1.7,5.8H181.1z"/>
	<path class="st2" d="M199.5,77.2h-3.6L190,67h-0.1c0.1,1.8,0.2,3.1,0.2,3.8v6.3h-2.5V63.7h3.6l5.8,10.1h0.1c-0.1-1.7-0.1-3-0.1-3.7
		v-6.4h2.6V77.2z"/>
	<path class="st2" d="M208.6,65.9c-1.1,0-1.9,0.4-2.5,1.2s-0.9,1.9-0.9,3.4c0,3,1.1,4.5,3.4,4.5c0.9,0,2.1-0.2,3.4-0.7v2.4
		c-1.1,0.5-2.3,0.7-3.7,0.7c-2,0-3.5-0.6-4.5-1.8c-1-1.2-1.6-2.9-1.6-5.1c0-1.4,0.3-2.6,0.8-3.7c0.5-1.1,1.2-1.9,2.2-2.4
		s2.1-0.8,3.4-0.8c1.3,0,2.6,0.3,3.9,0.9l-0.9,2.3c-0.5-0.2-1-0.4-1.5-0.6S209,65.9,208.6,65.9z"/>
	<path class="st2" d="M222.6,77.2h-7.8V63.7h7.8V66h-4.9v3h4.6v2.3h-4.6v3.5h4.9V77.2z"/>
	<path class="st2" d="M239.6,67.9c0,1.4-0.5,2.6-1.4,3.3c-0.9,0.8-2.2,1.2-3.9,1.2h-1.2v4.8h-2.9V63.7h4.3c1.6,0,2.9,0.4,3.7,1.1
		C239.2,65.5,239.6,66.5,239.6,67.9z M233.2,70h0.9c0.9,0,1.5-0.2,2-0.5c0.4-0.3,0.7-0.9,0.7-1.5c0-0.7-0.2-1.2-0.5-1.5
		c-0.4-0.3-0.9-0.5-1.7-0.5h-1.3V70z"/>
	<path class="st2" d="M250.4,77.2l-1-3.2h-4.9l-1,3.2h-3.1l4.7-13.5h3.5l4.8,13.5H250.4z M248.7,71.6c-0.9-2.9-1.4-4.5-1.5-4.9
		c-0.1-0.4-0.2-0.7-0.2-0.9c-0.2,0.8-0.8,2.7-1.7,5.8H248.7z"/>
	<path class="st2" d="M259.3,69.2l2.8-5.5h3.1l-4.5,8.2v5.2h-2.8V72l-4.5-8.3h3.1L259.3,69.2z"/>
	<path class="st2" d="M274.9,73.4c0,1.2-0.4,2.2-1.3,2.9c-0.9,0.7-2.1,1-3.6,1c-1.4,0-2.7-0.3-3.8-0.8v-2.7c0.9,0.4,1.7,0.7,2.3,0.9
		c0.6,0.2,1.2,0.2,1.7,0.2c0.6,0,1.1-0.1,1.4-0.4c0.3-0.2,0.5-0.6,0.5-1.1c0-0.3-0.1-0.5-0.2-0.7c-0.1-0.2-0.4-0.4-0.6-0.6
		c-0.3-0.2-0.9-0.5-1.7-0.9c-0.8-0.4-1.4-0.8-1.8-1.1c-0.4-0.4-0.7-0.8-1-1.2c-0.2-0.5-0.4-1-0.4-1.7c0-1.2,0.4-2.1,1.2-2.8
		c0.8-0.7,1.9-1,3.3-1c0.7,0,1.4,0.1,2,0.2c0.6,0.2,1.3,0.4,2,0.7l-0.9,2.2c-0.7-0.3-1.3-0.5-1.8-0.6c-0.5-0.1-0.9-0.2-1.4-0.2
		c-0.5,0-1,0.1-1.2,0.4s-0.4,0.6-0.4,1c0,0.3,0.1,0.5,0.2,0.7c0.1,0.2,0.3,0.4,0.6,0.5c0.3,0.2,0.9,0.5,1.8,0.9
		c1.3,0.6,2.1,1.2,2.6,1.8C274.6,71.8,274.9,72.5,274.9,73.4z"/>
	<path class="st2" d="M290.7,77.2h-9.4v-2l3.4-3.4c1-1,1.7-1.7,2-2.1s0.5-0.8,0.7-1.1c0.1-0.3,0.2-0.7,0.2-1c0-0.5-0.1-0.9-0.4-1.2
		s-0.7-0.4-1.2-0.4c-0.5,0-1,0.1-1.5,0.4c-0.5,0.2-1,0.6-1.5,1l-1.5-1.8c0.7-0.6,1.2-1,1.6-1.2c0.4-0.2,0.9-0.4,1.4-0.5
		s1.1-0.2,1.7-0.2c0.8,0,1.6,0.2,2.2,0.5c0.6,0.3,1.1,0.7,1.5,1.3c0.4,0.6,0.5,1.2,0.5,1.9c0,0.6-0.1,1.2-0.3,1.7s-0.6,1.1-1,1.7
		c-0.5,0.6-1.3,1.4-2.4,2.4l-1.7,1.6v0.1h5.9V77.2z"/>
	<path class="st2" d="M303,77.2h-2.9V66.1h-3.7v-2.4h10.2v2.4H303V77.2z"/>
	<path class="st2" d="M321,70.4c0,2.2-0.6,3.9-1.7,5.1c-1.1,1.2-2.7,1.8-4.7,1.8s-3.6-0.6-4.7-1.8c-1.1-1.2-1.7-2.9-1.7-5.2
		c0-2.2,0.6-4,1.7-5.1c1.1-1.2,2.7-1.8,4.8-1.8c2.1,0,3.6,0.6,4.7,1.8C320.4,66.5,321,68.2,321,70.4z M311.2,70.4
		c0,1.5,0.3,2.6,0.9,3.4s1.4,1.1,2.6,1.1c2.3,0,3.4-1.5,3.4-4.5c0-3-1.1-4.5-3.4-4.5c-1.1,0-2,0.4-2.6,1.1
		C311.4,67.8,311.2,68.9,311.2,70.4z"/>
	<path class="st2" d="M334.8,77.2h-2.8v-7.8l0-1.3l0-1.4c-0.5,0.5-0.8,0.8-1,0.9l-1.5,1.2l-1.4-1.7l4.3-3.5h2.3V77.2z"/>
</g>
</svg>
