<?xml version="1.0" encoding="UTF-8"?>
<svg id="Layer_1" data-name="Layer 1" xmlns="http://www.w3.org/2000/svg" viewBox="0 0 51.8 84.6">
  <defs>
    <style>
      .cls-1 {
        font-size: 14px;
      }

      .cls-2 {
        fill: #967BB6;
      }

      .cls-2, .cls-3, .cls-4 {
        stroke-width: 0px;
      }

      .cls-3 {
        fill: #66369D;
      }

      .cls-5 {
        fill: #FFF;
        font-family: Courgette-Regular, Courgette;
      }

      .cls-4 {
        fill: #fff;
      }

      .cls-6 {
        font-size: 20px;
      }
    </style>
  </defs>
  <g>
    <path class="cls-3" d="m1.4,0h49c.7,0,1.4.6,1.4,1.3v82c0,.8-.6,1.3-1.4,1.3H1.4c-.7,0-1.4-.6-1.4-1.3V1.3C0,.6.7,0,1.4,0Z"/>
    <circle class="cls-4" cx="49.7" cy="2.1" r=".8"/>
    <circle class="cls-4" cx="2.1" cy="2.1" r=".8"/>
    <g>
      <circle class="cls-4" cx="49.7" cy="82.6" r=".8"/>
      <circle class="cls-4" cx="2.1" cy="82.6" r=".8"/>
    </g>
    <g>
      <path class="cls-2" d="m11.76,44.53l.45-.56-.11-.11c-.45-1-.45-2.23,0-3.23l12.92-28.5c.11-.33.56-.56.89-.56h0c.45,0,.78.22.89.56l4.68,10.47.67-.22-4.68-10.47c-.22-.56-.89-1-1.56-1h0c-.67,0-1.22.33-1.56,1l-12.8,28.5c-.56,1.22-.56,2.56,0,3.79l.22.33Z"/>
      <path class="cls-2" d="m39.26,38.07l-.56.45.89,2c.45,1,.45,2.23,0,3.23l-12.8,28.62c-.11.33-.56.56-.89.56h0c-.45,0-.78-.22-.89-.56l-2.23-4.9-.67.22,2.23,5.01c.22.56.89,1,1.56,1h0c.67,0,1.22-.33,1.56-1l12.8-28.5c.56-1.22.56-2.56,0-3.79l-1-2.34Z"/>
    </g>
  </g>
  <text class="cls-5" transform="translate(20.03 65.5) rotate(-63.66)"><tspan class="cls-6" x="0" y="0">C</tspan><tspan class="cls-1" x="10.67" y="0">himps</tspan></text>
</svg>