<?xml version="1.0" encoding="utf-8"?>
<!-- Generator: Adobe Illustrator 28.0.0, SVG Export Plug-In . SVG Version: 6.00 Build 0)  -->
<svg version="1.1" id="Layer_1" xmlns="http://www.w3.org/2000/svg" xmlns:xlink="http://www.w3.org/1999/xlink" x="0px" y="0px"
	 viewBox="0 0 56 88.9" style="enable-background:new 0 0 56 88.9;" xml:space="preserve">
<style type="text/css">

	.st0{fill:#FFC800;}
	.st1{fill:#FFFFFF;}
	.st2{fill:#213743;}
	.st3{fill:#0F212E;}
	.st4{font-family:'Courgette-Regular';}
	.st5{font-size:20px;}
	.st6{font-size:14px;}
</style>
<g>
	<path class="st0" d="M3.5,2.1h49c0.7,0,1.4,0.6,1.4,1.3v82c0,0.8-0.6,1.3-1.4,1.3h-49c-0.7,0-1.4-0.6-1.4-1.3v-82
		C2.1,2.7,2.8,2.1,3.5,2.1z"/>
	<circle class="st1" cx="51.8" cy="4.2" r="0.8"/>
	<circle class="st1" cx="4.2" cy="4.2" r="0.8"/>
	<g>
		<circle class="st1" cx="51.8" cy="84.7" r="0.8"/>
		<circle class="st1" cx="4.2" cy="84.7" r="0.8"/>
	</g>
	<g>
		<path class="st2" d="M13.9,46.6l0.4-0.6L14.2,46c-0.4-1-0.4-2.2,0-3.2l12.9-28.5c0.1-0.3,0.6-0.6,0.9-0.6l0,0
			c0.4,0,0.8,0.2,0.9,0.6l4.7,10.5l0.7-0.2L29.6,14c-0.2-0.6-0.9-1-1.6-1l0,0c-0.7,0-1.2,0.3-1.6,1L13.6,42.5
			c-0.6,1.2-0.6,2.6,0,3.8L13.9,46.6z"/>
		<path class="st2" d="M41.4,40.2l-0.6,0.4l0.9,2c0.4,1,0.4,2.2,0,3.2L28.9,74.5C28.8,74.8,28.3,75,28,75l0,0
			c-0.4,0-0.8-0.2-0.9-0.6l-2.2-4.9l-0.7,0.2l2.2,5c0.2,0.6,0.9,1,1.6,1l0,0c0.7,0,1.2-0.3,1.6-1l12.8-28.5c0.6-1.2,0.6-2.6,0-3.8
			L41.4,40.2z"/>
	</g>
</g>
<text transform="matrix(0.4437 -0.8962 0.8962 0.4437 22.1307 67.5973)"><tspan x="0" y="0" class="st3 st4 st5">C</tspan><tspan x="10.7" y="0" class="st3 st4 st6">himps</tspan></text>
</svg>
